# xmcd CD database file
#
# Track frame offsets:
#	150
#	21967
#	71732
#	97520
#	125715
#	145307
#	163562
#	189820
#	231065
#	256220
#	290645
#
# Disc length: 4276 seconds
#
# Revision: 0
# Processed by: cddbd v1.5.2PL0 Copyright (c) Steve Scherf et al.
# Submitted via: CDex 1.51
#
DISCID=9410b20b
DTITLE=Thomas Jaderlund Amazing Orchestra - Thomas Jaderlund Amazing Orchestra Disk1
DYEAR=1997
DGENRE=Jazz
TTITLE0=Amazing Guitar
TTITLE1=Spunk
TTITLE2=Viavy Rose Variations
TTITLE3=Swinging Pigs
TTITLE4=Flying Cattle
TTITLE5=Tjao
TTITLE6=Past
TTITLE7=Gonglat
TTITLE8=Amazing Cello
TTITLE9=Dessharmoni
TTITLE10=O Store Gud
EXTD=YEAR: 1997
EXTT0=
EXTT1=
EXTT2=
EXTT3=
EXTT4=
EXTT5=
EXTT6=
EXTT7=
EXTT8=
EXTT9=
EXTT10=
PLAYORDER=
